<mxfile host="app.diagrams.net" modified="2023-12-09T14:04:33.570Z" agent="Mozilla/5.0 (X11; Linux x86_64) AppleWebKit/537.36 (KHTML, like Gecko) Chrome/120.0.0.0 Safari/537.36" etag="6n8xwumzRFJ6og0LqvKb" version="22.1.7" type="device">
  <diagram name="Page-1" id="16e2658f-23c8-b752-8be9-c03fbebb8bbe">
    <mxGraphModel dx="910" dy="450" grid="1" gridSize="10" guides="1" tooltips="1" connect="1" arrows="1" fold="1" page="1" pageScale="1" pageWidth="1100" pageHeight="850" background="none" math="0" shadow="0">
      <root>
        <mxCell id="0" />
        <mxCell id="1" parent="0" />
        <mxCell id="9ylT-5S26sAHaksII3KB-1" value="" style="pointerEvents=1;verticalLabelPosition=bottom;shadow=0;dashed=0;align=center;html=1;verticalAlign=top;shape=mxgraph.electrical.resistors.resistor_1;" vertex="1" parent="1">
          <mxGeometry x="430" y="120" width="100" height="20" as="geometry" />
        </mxCell>
        <mxCell id="9ylT-5S26sAHaksII3KB-11" style="edgeStyle=orthogonalEdgeStyle;rounded=0;orthogonalLoop=1;jettySize=auto;html=1;exitX=0;exitY=0.5;exitDx=0;exitDy=0;exitPerimeter=0;endArrow=oval;endFill=1;" edge="1" parent="1" source="9ylT-5S26sAHaksII3KB-2">
          <mxGeometry relative="1" as="geometry">
            <mxPoint x="320" y="130" as="targetPoint" />
          </mxGeometry>
        </mxCell>
        <mxCell id="9ylT-5S26sAHaksII3KB-2" value="" style="pointerEvents=1;verticalLabelPosition=bottom;shadow=0;dashed=0;align=center;html=1;verticalAlign=top;shape=mxgraph.electrical.resistors.resistor_1;rotation=90;" vertex="1" parent="1">
          <mxGeometry x="270" y="250" width="100" height="20" as="geometry" />
        </mxCell>
        <mxCell id="9ylT-5S26sAHaksII3KB-10" style="edgeStyle=orthogonalEdgeStyle;rounded=0;orthogonalLoop=1;jettySize=auto;html=1;exitX=0;exitY=0.5;exitDx=0;exitDy=0;exitPerimeter=0;endArrow=oval;endFill=1;" edge="1" parent="1" source="9ylT-5S26sAHaksII3KB-3">
          <mxGeometry relative="1" as="geometry">
            <mxPoint x="640" y="130" as="targetPoint" />
          </mxGeometry>
        </mxCell>
        <mxCell id="9ylT-5S26sAHaksII3KB-3" value="" style="pointerEvents=1;verticalLabelPosition=bottom;shadow=0;dashed=0;align=center;html=1;verticalAlign=top;shape=mxgraph.electrical.resistors.resistor_1;rotation=90;" vertex="1" parent="1">
          <mxGeometry x="590" y="250" width="100" height="20" as="geometry" />
        </mxCell>
        <mxCell id="9ylT-5S26sAHaksII3KB-4" value="" style="pointerEvents=1;verticalLabelPosition=bottom;shadow=0;dashed=0;align=center;html=1;verticalAlign=top;shape=mxgraph.electrical.resistors.resistor_1;" vertex="1" parent="1">
          <mxGeometry x="430" y="350" width="100" height="20" as="geometry" />
        </mxCell>
        <mxCell id="9ylT-5S26sAHaksII3KB-24" style="edgeStyle=orthogonalEdgeStyle;rounded=0;orthogonalLoop=1;jettySize=auto;html=1;exitX=0.5;exitY=1;exitDx=0;exitDy=0;exitPerimeter=0;endArrow=oval;endFill=1;" edge="1" parent="1" source="9ylT-5S26sAHaksII3KB-5">
          <mxGeometry relative="1" as="geometry">
            <mxPoint x="320" y="360" as="targetPoint" />
            <Array as="points">
              <mxPoint x="120" y="360" />
            </Array>
          </mxGeometry>
        </mxCell>
        <mxCell id="9ylT-5S26sAHaksII3KB-5" value="" style="pointerEvents=1;verticalLabelPosition=bottom;shadow=0;dashed=0;align=center;html=1;verticalAlign=top;shape=mxgraph.electrical.signal_sources.current_source;" vertex="1" parent="1">
          <mxGeometry x="100" y="220" width="40" height="60" as="geometry" />
        </mxCell>
        <mxCell id="9ylT-5S26sAHaksII3KB-23" style="edgeStyle=orthogonalEdgeStyle;rounded=0;orthogonalLoop=1;jettySize=auto;html=1;exitX=0.5;exitY=1;exitDx=0;exitDy=0;exitPerimeter=0;endArrow=oval;endFill=1;" edge="1" parent="1" source="9ylT-5S26sAHaksII3KB-6">
          <mxGeometry relative="1" as="geometry">
            <mxPoint x="640" y="360" as="targetPoint" />
            <Array as="points">
              <mxPoint x="840" y="360" />
            </Array>
          </mxGeometry>
        </mxCell>
        <mxCell id="9ylT-5S26sAHaksII3KB-6" value="" style="pointerEvents=1;verticalLabelPosition=bottom;shadow=0;dashed=0;align=center;html=1;verticalAlign=top;shape=mxgraph.electrical.signal_sources.current_source;" vertex="1" parent="1">
          <mxGeometry x="820" y="220" width="40" height="60" as="geometry" />
        </mxCell>
        <mxCell id="9ylT-5S26sAHaksII3KB-8" style="edgeStyle=orthogonalEdgeStyle;rounded=0;orthogonalLoop=1;jettySize=auto;html=1;exitX=0.5;exitY=0;exitDx=0;exitDy=0;exitPerimeter=0;entryX=0;entryY=0.5;entryDx=0;entryDy=0;entryPerimeter=0;endArrow=none;endFill=0;" edge="1" parent="1" source="9ylT-5S26sAHaksII3KB-5" target="9ylT-5S26sAHaksII3KB-1">
          <mxGeometry relative="1" as="geometry" />
        </mxCell>
        <mxCell id="9ylT-5S26sAHaksII3KB-9" style="edgeStyle=orthogonalEdgeStyle;rounded=0;orthogonalLoop=1;jettySize=auto;html=1;exitX=1;exitY=0.5;exitDx=0;exitDy=0;exitPerimeter=0;entryX=0.5;entryY=0;entryDx=0;entryDy=0;entryPerimeter=0;endArrow=none;endFill=0;" edge="1" parent="1" source="9ylT-5S26sAHaksII3KB-1" target="9ylT-5S26sAHaksII3KB-6">
          <mxGeometry relative="1" as="geometry" />
        </mxCell>
        <mxCell id="9ylT-5S26sAHaksII3KB-26" style="edgeStyle=orthogonalEdgeStyle;rounded=0;orthogonalLoop=1;jettySize=auto;html=1;exitX=0;exitY=0.5;exitDx=0;exitDy=0;endArrow=none;endFill=0;" edge="1" parent="1" source="9ylT-5S26sAHaksII3KB-13">
          <mxGeometry relative="1" as="geometry">
            <mxPoint x="320" y="360" as="targetPoint" />
          </mxGeometry>
        </mxCell>
        <mxCell id="9ylT-5S26sAHaksII3KB-13" value="" style="ellipse;whiteSpace=wrap;html=1;aspect=fixed;" vertex="1" parent="1">
          <mxGeometry x="410" y="495" width="50" height="50" as="geometry" />
        </mxCell>
        <mxCell id="9ylT-5S26sAHaksII3KB-15" style="edgeStyle=orthogonalEdgeStyle;rounded=0;orthogonalLoop=1;jettySize=auto;html=1;exitX=0;exitY=0.5;exitDx=0;exitDy=0;exitPerimeter=0;entryX=1;entryY=0.5;entryDx=0;entryDy=0;endArrow=none;endFill=0;" edge="1" parent="1" source="9ylT-5S26sAHaksII3KB-14" target="9ylT-5S26sAHaksII3KB-13">
          <mxGeometry relative="1" as="geometry" />
        </mxCell>
        <mxCell id="9ylT-5S26sAHaksII3KB-25" style="edgeStyle=orthogonalEdgeStyle;rounded=0;orthogonalLoop=1;jettySize=auto;html=1;exitX=1;exitY=0.5;exitDx=0;exitDy=0;exitPerimeter=0;endArrow=none;endFill=0;" edge="1" parent="1" source="9ylT-5S26sAHaksII3KB-14">
          <mxGeometry relative="1" as="geometry">
            <mxPoint x="640" y="360" as="targetPoint" />
          </mxGeometry>
        </mxCell>
        <mxCell id="9ylT-5S26sAHaksII3KB-14" value="" style="pointerEvents=1;verticalLabelPosition=bottom;shadow=0;dashed=0;align=center;html=1;verticalAlign=top;shape=mxgraph.electrical.resistors.resistor_1;" vertex="1" parent="1">
          <mxGeometry x="480" y="510" width="100" height="20" as="geometry" />
        </mxCell>
        <mxCell id="9ylT-5S26sAHaksII3KB-17" value="" style="endArrow=none;html=1;rounded=0;" edge="1" parent="1">
          <mxGeometry width="50" height="50" relative="1" as="geometry">
            <mxPoint x="425" y="510" as="sourcePoint" />
            <mxPoint x="445" y="510" as="targetPoint" />
            <Array as="points">
              <mxPoint x="425" y="510" />
            </Array>
          </mxGeometry>
        </mxCell>
        <mxCell id="9ylT-5S26sAHaksII3KB-18" value="" style="endArrow=none;html=1;rounded=0;" edge="1" parent="1">
          <mxGeometry width="50" height="50" relative="1" as="geometry">
            <mxPoint x="425" y="530" as="sourcePoint" />
            <mxPoint x="445" y="530" as="targetPoint" />
            <Array as="points">
              <mxPoint x="425" y="530" />
            </Array>
          </mxGeometry>
        </mxCell>
        <mxCell id="9ylT-5S26sAHaksII3KB-19" value="+" style="text;html=1;strokeColor=none;fillColor=none;align=center;verticalAlign=middle;whiteSpace=wrap;rounded=0;" vertex="1" parent="1">
          <mxGeometry x="430" y="530" width="60" height="30" as="geometry" />
        </mxCell>
        <mxCell id="9ylT-5S26sAHaksII3KB-20" value="-" style="text;html=1;strokeColor=none;fillColor=none;align=center;verticalAlign=middle;whiteSpace=wrap;rounded=0;" vertex="1" parent="1">
          <mxGeometry x="380" y="530" width="60" height="30" as="geometry" />
        </mxCell>
        <mxCell id="9ylT-5S26sAHaksII3KB-21" style="edgeStyle=orthogonalEdgeStyle;rounded=0;orthogonalLoop=1;jettySize=auto;html=1;exitX=0;exitY=0.5;exitDx=0;exitDy=0;exitPerimeter=0;entryX=1;entryY=0.5;entryDx=0;entryDy=0;entryPerimeter=0;endArrow=none;endFill=0;" edge="1" parent="1" source="9ylT-5S26sAHaksII3KB-4" target="9ylT-5S26sAHaksII3KB-2">
          <mxGeometry relative="1" as="geometry" />
        </mxCell>
        <mxCell id="9ylT-5S26sAHaksII3KB-22" style="edgeStyle=orthogonalEdgeStyle;rounded=0;orthogonalLoop=1;jettySize=auto;html=1;exitX=1;exitY=0.5;exitDx=0;exitDy=0;exitPerimeter=0;entryX=1;entryY=0.5;entryDx=0;entryDy=0;entryPerimeter=0;endArrow=none;endFill=0;" edge="1" parent="1" source="9ylT-5S26sAHaksII3KB-4" target="9ylT-5S26sAHaksII3KB-3">
          <mxGeometry relative="1" as="geometry" />
        </mxCell>
      </root>
    </mxGraphModel>
  </diagram>
</mxfile>
